<svg width="356" height="167" viewBox="0 0 356 167" fill="none" xmlns="http://www.w3.org/2000/svg">
<path d="M19.4658 117.302C22.2871 118.927 23.6978 121.381 23.6978 124.662C23.6978 127.391 22.7318 129.63 20.7998 131.378C18.8678 133.126 16.4911 134 13.6698 134H0.0078125V101.8H12.7038C15.4638 101.8 17.7791 102.659 19.6498 104.376C21.5511 106.063 22.5018 108.225 22.5018 110.862C22.5018 113.53 21.4898 115.677 19.4658 117.302ZM12.7038 107.734H6.35581V114.818H12.7038C13.6851 114.818 14.4978 114.481 15.1418 113.806C15.8165 113.131 16.1538 112.288 16.1538 111.276C16.1538 110.264 15.8318 109.421 15.1878 108.746C14.5438 108.071 13.7158 107.734 12.7038 107.734ZM13.6698 128.066C14.7431 128.066 15.6325 127.713 16.3378 127.008C17.0431 126.272 17.3958 125.352 17.3958 124.248C17.3958 123.175 17.0431 122.285 16.3378 121.58C15.6325 120.844 14.7431 120.476 13.6698 120.476H6.35581V128.066H13.6698Z" fill="white"/>
<path d="M27.3994 101.8H33.7474V134H27.3994V101.8Z" fill="white"/>
<path d="M66.342 129.814C63.0913 133.034 59.1353 134.644 54.474 134.644C49.8126 134.644 45.8566 133.034 42.606 129.814C39.386 126.563 37.776 122.592 37.776 117.9C37.776 113.208 39.386 109.252 42.606 106.032C45.8566 102.781 49.8126 101.156 54.474 101.156C59.1353 101.156 63.0913 102.781 66.342 106.032C69.5926 109.252 71.218 113.208 71.218 117.9C71.218 122.592 69.5926 126.563 66.342 129.814ZM47.068 125.49C49.0613 127.453 51.53 128.434 54.474 128.434C57.418 128.434 59.8866 127.453 61.88 125.49C63.8733 123.497 64.87 120.967 64.87 117.9C64.87 114.833 63.8733 112.303 61.88 110.31C59.8866 108.317 57.418 107.32 54.474 107.32C51.53 107.32 49.0613 108.317 47.068 110.31C45.0746 112.303 44.078 114.833 44.078 117.9C44.078 120.967 45.0746 123.497 47.068 125.49Z" fill="white"/>
<path d="M88.0076 101.8C92.4236 101.8 96.1036 103.349 99.0476 106.446C102.022 109.543 103.51 113.361 103.51 117.9C103.51 122.439 102.022 126.257 99.0476 129.354C96.1036 132.451 92.4236 134 88.0076 134H75.2196V101.8H88.0076ZM88.0076 127.928C90.7983 127.928 93.0676 127.008 94.8156 125.168C96.5636 123.297 97.4376 120.875 97.4376 117.9C97.4376 114.925 96.5636 112.518 94.8156 110.678C93.0676 108.807 90.7983 107.872 88.0076 107.872H81.5676V127.928H88.0076Z" fill="white"/>
<path d="M113.901 127.928H127.471V134H107.553V101.8H127.241V107.872H113.901V114.726H126.091V120.706H113.901V127.928Z" fill="white"/>
<path d="M162.863 116.704V119.188C162.863 123.788 161.391 127.514 158.447 130.366C155.503 133.218 151.7 134.644 147.039 134.644C142.071 134.644 137.946 133.034 134.665 129.814C131.414 126.563 129.789 122.607 129.789 117.946C129.789 113.254 131.399 109.283 134.619 106.032C137.869 102.781 141.887 101.156 146.671 101.156C149.676 101.156 152.421 101.846 154.905 103.226C157.389 104.575 159.321 106.385 160.701 108.654L155.273 111.782C154.506 110.463 153.341 109.39 151.777 108.562C150.243 107.734 148.526 107.32 146.625 107.32C143.558 107.32 141.028 108.332 139.035 110.356C137.072 112.349 136.091 114.879 136.091 117.946C136.091 120.982 137.087 123.497 139.081 125.49C141.105 127.453 143.773 128.434 147.085 128.434C149.538 128.434 151.562 127.897 153.157 126.824C154.782 125.72 155.886 124.217 156.469 122.316H146.717V116.704H162.863Z" fill="white"/>
<path d="M184.582 134L178.096 122.822H173.266V134H166.918V101.8H179.798C182.772 101.8 185.302 102.843 187.388 104.928C189.473 107.013 190.516 109.528 190.516 112.472C190.516 114.465 189.948 116.321 188.814 118.038C187.679 119.725 186.176 120.997 184.306 121.856L191.436 134H184.582ZM173.266 107.734V117.256H179.798C180.994 117.256 182.021 116.796 182.88 115.876C183.738 114.925 184.168 113.791 184.168 112.472C184.168 111.153 183.738 110.034 182.88 109.114C182.021 108.194 180.994 107.734 179.798 107.734H173.266Z" fill="white"/>
<path d="M215.414 134L213.482 128.204H200.648L198.716 134H191.862L203.132 101.8H210.998L222.314 134H215.414ZM202.672 122.27H211.504L207.088 109.114L202.672 122.27Z" fill="white"/>
<path d="M237.768 101.8C242.184 101.8 245.864 103.349 248.808 106.446C251.783 109.543 253.27 113.361 253.27 117.9C253.27 122.439 251.783 126.257 248.808 129.354C245.864 132.451 242.184 134 237.768 134H224.98V101.8H237.768ZM237.768 127.928C240.559 127.928 242.828 127.008 244.576 125.168C246.324 123.297 247.198 120.875 247.198 117.9C247.198 114.925 246.324 112.518 244.576 110.678C242.828 108.807 240.559 107.872 237.768 107.872H231.328V127.928H237.768Z" fill="white"/>
<path d="M276.845 134L274.913 128.204H262.079L260.147 134H253.293L264.563 101.8H272.429L283.745 134H276.845ZM264.103 122.27H272.935L268.519 109.114L264.103 122.27Z" fill="white"/>
<path d="M305.87 117.302C308.691 118.927 310.102 121.381 310.102 124.662C310.102 127.391 309.136 129.63 307.204 131.378C305.272 133.126 302.895 134 300.074 134H286.412V101.8H299.108C301.868 101.8 304.183 102.659 306.054 104.376C307.955 106.063 308.906 108.225 308.906 110.862C308.906 113.53 307.894 115.677 305.87 117.302ZM299.108 107.734H292.76V114.818H299.108C300.089 114.818 300.902 114.481 301.546 113.806C302.22 113.131 302.558 112.288 302.558 111.276C302.558 110.264 302.236 109.421 301.592 108.746C300.948 108.071 300.12 107.734 299.108 107.734ZM300.074 128.066C301.147 128.066 302.036 127.713 302.742 127.008C303.447 126.272 303.8 125.352 303.8 124.248C303.8 123.175 303.447 122.285 302.742 121.58C302.036 120.844 301.147 120.476 300.074 120.476H292.76V128.066H300.074Z" fill="white"/>
<path d="M320.151 127.928H332.433V134H313.803V101.8H320.151V127.928Z" fill="white"/>
<path d="M341.928 127.928H355.498V134H335.58V101.8H355.268V107.872H341.928V114.726H354.118V120.706H341.928V127.928Z" fill="white"/>
<path d="M122.966 166.294C121.51 166.294 120.285 165.972 119.291 165.328C118.297 164.67 117.597 163.781 117.191 162.661L119.669 161.212C120.243 162.71 121.37 163.459 123.05 163.459C123.862 163.459 124.457 163.312 124.835 163.018C125.213 162.724 125.402 162.353 125.402 161.905C125.402 161.387 125.171 160.988 124.709 160.708C124.247 160.414 123.421 160.099 122.231 159.763C121.573 159.567 121.013 159.371 120.551 159.175C120.103 158.979 119.648 158.72 119.186 158.398C118.738 158.062 118.395 157.642 118.157 157.138C117.919 156.634 117.8 156.046 117.8 155.374C117.8 154.044 118.269 152.987 119.207 152.203C120.159 151.405 121.3 151.006 122.63 151.006C123.82 151.006 124.863 151.3 125.759 151.888C126.669 152.462 127.376 153.267 127.88 154.303L125.444 155.71C124.856 154.45 123.918 153.82 122.63 153.82C122.028 153.82 121.552 153.96 121.202 154.24C120.866 154.506 120.698 154.856 120.698 155.29C120.698 155.752 120.887 156.13 121.265 156.424C121.657 156.704 122.399 157.012 123.491 157.348C123.939 157.488 124.275 157.6 124.499 157.684C124.737 157.754 125.052 157.873 125.444 158.041C125.85 158.195 126.158 158.342 126.368 158.482C126.592 158.622 126.844 158.811 127.124 159.049C127.404 159.287 127.614 159.532 127.754 159.784C127.908 160.036 128.034 160.344 128.132 160.708C128.244 161.058 128.3 161.443 128.3 161.863C128.3 163.221 127.803 164.299 126.809 165.097C125.829 165.895 124.548 166.294 122.966 166.294Z" fill="white"/>
<path d="M153.869 151.3V154.072H149.9V166H147.002V154.072H143.054V151.3H153.869Z" fill="white"/>
<path d="M181.505 164.089C180.021 165.559 178.215 166.294 176.087 166.294C173.959 166.294 172.153 165.559 170.669 164.089C169.199 162.605 168.464 160.792 168.464 158.65C168.464 156.508 169.199 154.702 170.669 153.232C172.153 151.748 173.959 151.006 176.087 151.006C178.215 151.006 180.021 151.748 181.505 153.232C182.989 154.702 183.731 156.508 183.731 158.65C183.731 160.792 182.989 162.605 181.505 164.089ZM172.706 162.115C173.616 163.011 174.743 163.459 176.087 163.459C177.431 163.459 178.558 163.011 179.468 162.115C180.378 161.205 180.833 160.05 180.833 158.65C180.833 157.25 180.378 156.095 179.468 155.185C178.558 154.275 177.431 153.82 176.087 153.82C174.743 153.82 173.616 154.275 172.706 155.185C171.796 156.095 171.341 157.25 171.341 158.65C171.341 160.05 171.796 161.205 172.706 162.115Z" fill="white"/>
<path d="M208.322 166L205.361 160.897H203.156V166H200.258V151.3H206.138C207.496 151.3 208.651 151.776 209.603 152.728C210.555 153.68 211.031 154.828 211.031 156.172C211.031 157.082 210.772 157.929 210.254 158.713C209.736 159.483 209.05 160.064 208.196 160.456L211.451 166H208.322ZM203.156 154.009V158.356H206.138C206.684 158.356 207.153 158.146 207.545 157.726C207.937 157.292 208.133 156.774 208.133 156.172C208.133 155.57 207.937 155.059 207.545 154.639C207.153 154.219 206.684 154.009 206.138 154.009H203.156Z" fill="white"/>
<path d="M230.546 163.228H236.741V166H227.648V151.3H236.636V154.072H230.546V157.201H236.111V159.931H230.546V163.228Z" fill="white"/>
<path d="M147 18L117.5 74.5H131L154 31L147 18Z" fill="#EFEFEF"/>
<path d="M212.904 17.5L242 74.5H228.685L206 30.615L212.904 17.5Z" fill="#EFEFEF"/>
<path fill-rule="evenodd" clip-rule="evenodd" d="M141 75L180 0L219 75H185.5V86H174.5V75H141ZM157 64.5L179.5 21L202 64.5H157Z" fill="#EFEFEF"/>
</svg>
